<?xml version="1.0" standalone="no"?>
<!DOCTYPE svg PUBLIC "-//W3C//DTD SVG 20010904//EN" "http://www.w3.org/TR/2001/REC-SVG-20010904/DTD/svg10.dtd">
<!-- Created using Krita: https://krita.org -->
<svg xmlns="http://www.w3.org/2000/svg" 
    xmlns:xlink="http://www.w3.org/1999/xlink"
    xmlns:krita="http://krita.org/namespaces/svg/krita"
    xmlns:sodipodi="http://sodipodi.sourceforge.net/DTD/sodipodi-0.dtd"
    width="96pt"
    height="96pt"
    viewBox="0 0 96 96">
<defs/>
<path id="shape0" fill="#ffffff" fill-rule="evenodd" stroke="#ffffff" stroke-width="9.6" stroke-linecap="square" stroke-linejoin="bevel" d="M0 0L96 0L96 96L0 96Z" sodipodi:nodetypes="ccccc"/><g id="group0" transform="matrix(0.549829118323354 0 0 0.549829118323354 15.5100475691547 37.0099432613426)" fill="none">
  <path id="shape1" transform="translate(37.8738, 0)" fill="#d61b3e" stroke-opacity="0" stroke="#000000" stroke-width="0" stroke-linecap="square" stroke-linejoin="bevel" d="M6.7193 10.1177C6.7193 14.073 9.7029 16.9683 14.6918 16.9683C16.8084 17.0082 18.9067 16.5781 20.829 15.7105L22.7008 18.1944C20.1174 19.5273 17.6351 20.2314 13.8065 20.2314C5.85 20.2314 0 16.4818 0 10.1177C0.0121 3.75358 5.8622 0 13.8186 0C17.631 0 19.8263 0.541877 22.5108 1.66914L20.5985 4.53278C18.5771 3.47671 16.7982 3.25917 14.6918 3.25917C9.7029 3.25917 6.7193 6.16632 6.7193 10.1058" sodipodi:nodetypes="ccccccccccc"/>
  <path id="shape2" transform="translate(61.6946, 0)" fill="#d61b3e" stroke-opacity="0" stroke="#000000" stroke-width="0" stroke-linecap="square" stroke-linejoin="bevel" d="M13.2566 0C5.5549 0 0 3.75358 0 10.1177C0 16.4818 5.5549 20.2353 13.2566 20.2353C20.9583 20.2353 26.5173 16.4857 26.5173 10.1177C26.5173 3.74963 20.9624 0 13.2566 0ZM13.2566 17.0869C9.0197 17.0869 6.6829 13.9741 6.6829 10.1137C6.6829 6.25334 9.0237 3.14051 13.2566 3.14051C17.4895 3.14051 19.8344 6.25729 19.8344 10.1137C19.8344 13.9701 17.4936 17.0869 13.2566 17.0869Z" sodipodi:nodetypes="cccccccccc"/>
  <path id="shape3" transform="translate(92.1537, 0.506287)" fill="#d61b3e" stroke-opacity="0" stroke="#000000" stroke-width="0" stroke-linecap="square" stroke-linejoin="bevel" d="M16.0823 11.0748L16.0823 19.2149L22.4463 19.2149L22.4463 0L16.0823 0L16.0823 7.32918L6.3514 7.32918L6.3514 0L0 0L0 19.2149L6.3514 19.2149L6.3514 11.0748Z" sodipodi:nodetypes="ccccccccccccc"/>
  <path id="shape4" transform="translate(27.3461, 0.510254)" fill="#d61b3e" stroke-opacity="0" stroke="#000000" stroke-width="0" stroke-linecap="square" stroke-linejoin="bevel" d="M6.7031 0L0 0L0 19.2148L6.7031 19.2148Z" sodipodi:nodetypes="ccccc"/>
  <path id="shape5" transform="translate(0, 0.0553589)" fill="#d61b3e" stroke-opacity="0" stroke="#000000" stroke-width="0" stroke-linecap="square" stroke-linejoin="bevel" d="M8.11813 9.2475L8.11813 11.0827C11.3763 13.5802 14.3055 16.4632 16.8386 19.6657L24.3423 19.6657C21.7305 16.6637 17.7281 13.0999 14.7768 11.3042C18.2415 11.1658 22.0984 9.79333 22.0984 5.90527C22.0984 0.91763 16.6486 0 11.1382 0C6.63843 0 2.49042 0.205676 0 0.403441L0 19.6657L6.26244 19.6657L6.26244 3.30663C7.89003 3.12091 9.52791 3.03504 11.1665 3.04954C14.4008 3.04954 16.0179 4.09374 16.0179 5.90922C16.0179 7.46366 15.3428 9.32265 8.11408 9.25146" sodipodi:nodetypes="cccccccccccccc"/>
  <path id="shape6" transform="translate(0.505371, 25.484)" fill="#6a6c6c" stroke-opacity="0" stroke="#000000" stroke-width="0" stroke-linecap="square" stroke-linejoin="bevel" d="M0 0L1.61716 0L1.61716 1.5188L0 1.5188ZM0 3.1326L1.61716 3.1326L1.61716 10.9641L0 10.9641Z" sodipodi:nodetypes="cccccccccc"/>
  <path id="shape7" transform="translate(4.36633, 28.4742552694326)" fill="#6a6c6c" stroke-opacity="0" stroke="#000000" stroke-width="0" stroke-linecap="square" stroke-linejoin="bevel" d="M9.72717 7.97784L9.72717 2.94664C9.72717 1.99344 9.42397 1.21024 8.30007 1.21024C6.98607 1.21024 6.52527 2.50364 6.52527 3.71004L6.52527 7.97784L4.93233 7.97784L4.93233 2.94664C4.93233 1.98154 4.61699 1.19054 3.4971 1.19054C2.18316 1.19054 1.69802 2.49974 1.69802 3.71004L1.69802 7.97784L0.08086 7.97784L0.08086 1.94594C0.08518 1.34514 0.0582 0.744445 0 0.146345L1.50396 0.146345L1.55247 1.49504C1.76711 1.03434 2.11699 0.646545 2.5576 0.381045C2.99821 0.115545 3.50962 -0.0157553 4.02672 0.00394473C4.54093 -0.0258553 5.0505 0.113845 5.47407 0.400645C5.89767 0.687445 6.21077 1.10474 6.36347 1.58604C6.56907 1.11684 6.91067 0.716945 7.34617 0.435745C7.78157 0.154545 8.29177 0.00444473 8.81347 0.00394473C10.556 0.00394473 11.3403 1.16284 11.3403 2.77264L11.3403 7.97784L9.72317 7.97784Z" sodipodi:nodetypes="ccccccccccccccccccccccccc"/>
  <path id="shape8" transform="translate(81.1449, 28.4626993040927)" fill="#6a6c6c" stroke-opacity="0" stroke="#000000" stroke-width="0" stroke-linecap="square" stroke-linejoin="bevel" d="M5.2194 7.9894L5.1709 6.7395C4.0267 8.8318 0 8.6104 0 5.9089C0 3.8719 1.9931 3.0373 5.1223 3.1837C5.1223 3.1837 5.2921 1.7123 4.2652 1.2614C3.5941 0.968701 2.1589 1.0122 0.946 1.7123L0.849 0.525701C2.7087 -0.225799 6.695 -0.696499 6.695 2.9305L6.695 6.2569C6.6916 6.8384 6.724 7.4196 6.7921 7.9973L5.2234 7.9973ZM3.6507 7.0005C4.8272 6.7276 5.1709 5.5687 5.1223 4.1488C5.1223 4.1488 1.4837 3.864 1.5848 5.8337C1.6414 6.9887 2.7977 7.2023 3.6507 7.0005Z" sodipodi:nodetypes="cccccccccccccccc"/>
  <path id="shape9" transform="translate(17.3116, 28.4626993040927)" fill="#6a6c6c" stroke-opacity="0" stroke="#000000" stroke-width="0" stroke-linecap="square" stroke-linejoin="bevel" d="M5.2194 7.9894L5.1709 6.7395C4.0268 8.8318 0 8.6104 0 5.9089C0 3.8719 1.9891 3.0373 5.1224 3.1837C5.1224 3.1837 5.2922 1.7123 4.2613 1.2614C3.5901 0.968701 2.1549 1.0122 0.942 1.7123L0.845 0.525701C2.7047 -0.225799 6.691 -0.696499 6.691 2.9305L6.691 6.2569C6.6875 6.8384 6.7199 7.4196 6.7881 7.9973L5.2194 7.9973ZM3.6508 7.0005C4.8273 6.7276 5.1709 5.5687 5.1224 4.1488C5.1224 4.1488 1.4838 3.864 1.5849 5.8337C1.6415 6.9887 2.7977 7.2023 3.6508 7.0005Z" sodipodi:nodetypes="cccccccccccccccc"/>
  <path id="shape10" transform="translate(98.505, 28.4513595365298)" fill="#6a6c6c" stroke-opacity="0" stroke="#000000" stroke-width="0" stroke-linecap="square" stroke-linejoin="bevel" d="M0.6226 11.1294L0.7196 9.79644C1.4556 10.1726 2.275 10.3668 3.105 10.362C5.874 10.3185 5.717 8.07194 5.717 6.63614C5.45 7.04604 5.084 7.38504 4.65 7.62314C4.217 7.86114 3.731 7.99084 3.234 8.00074C0.8975 8.00074 0 6.02314 0 4.04544C0 1.96104 0.9137 0.00314046 3.283 0.00314046C3.802 -0.0218595 4.316 0.10284 4.764 0.36154C5.211 0.62034 5.57 1.00184 5.798 1.45864L5.798 0.16534L7.334 0.16534L7.334 7.54194C7.334 11.8927 3.368 11.9402 0.6428 11.1017ZM3.728 1.21344C2.078 1.21344 1.706 2.74814 1.706 4.06524C1.706 5.28744 2.11 6.79044 3.728 6.79044C5.28 6.79044 5.777 5.25574 5.777 4.06524C5.777 2.81144 5.296 1.21344 3.756 1.21344" sodipodi:nodetypes="cccccccccccccccccccc"/>
  <path id="shape11" transform="translate(25.7208, 28.451478041433)" fill="#6a6c6c" stroke-opacity="0" stroke="#000000" stroke-width="0" stroke-linecap="square" stroke-linejoin="bevel" d="M0.6226 11.1293L0.7197 9.79632C1.4558 10.1722 2.2746 10.3664 3.105 10.3619C5.8743 10.3184 5.7167 8.07182 5.7167 6.63602C5.45 7.04612 5.0838 7.38532 4.6507 7.62342C4.2176 7.86152 3.731 7.99112 3.2343 8.00062C0.8975 8.00062 0 6.02302 0 4.04532C0 1.96092 0.9137 0.00302196 3.2829 0.00302196C3.8016 -0.021478 4.3162 0.103422 4.7631 0.362122C5.2101 0.620822 5.5697 1.00202 5.7975 1.45852L5.7975 0.165222L7.3338 0.165222L7.3338 7.54182C7.3338 11.8926 3.3678 11.9401 0.6428 11.1016ZM3.7276 1.21332C2.0781 1.21332 1.7061 2.74802 1.7061 4.06512C1.7061 5.28732 2.1104 6.79032 3.7276 6.79032C5.28 6.79032 5.7773 5.25562 5.7773 4.06512C5.7773 2.81132 5.2962 1.21332 3.7559 1.21332" sodipodi:nodetypes="cccccccccccccccccccc"/>
  <path id="shape12" transform="translate(35.4036, 25.484)" fill="#6a6c6c" stroke-opacity="0" stroke="#000000" stroke-width="0" stroke-linecap="square" stroke-linejoin="bevel" d="M0 0L1.6171 0L1.6171 1.5188L0 1.5188ZM0 3.1326L1.6171 3.1326L1.6171 10.9641L0 10.9641Z" sodipodi:nodetypes="cccccccccc"/>
  <path id="shape13" transform="translate(107.533, 28.4624)" fill="#6a6c6c" stroke-opacity="0" stroke="#000000" stroke-width="0" stroke-linecap="square" stroke-linejoin="bevel" d="M1.649 4.4774C1.742 7.2145 4.233 7.5586 6.452 6.5144L6.549 7.7366C3.315 8.757 0 8.1558 0 4.0423C0 1.8946 1.395 0 3.618 0C7.39 0 6.966 4.4774 6.966 4.4774ZM3.647 1.0798C2.284 1.0798 1.625 2.5077 1.625 3.5084L5.421 3.5084C5.421 2.3969 4.989 1.0798 3.626 1.0798" sodipodi:nodetypes="ccccccccccc"/>
  <path id="shape14" transform="translate(47.88, 28.4624)" fill="#6a6c6c" stroke-opacity="0" stroke="#000000" stroke-width="0" stroke-linecap="square" stroke-linejoin="bevel" d="M1.6495 4.4774C1.7425 7.2145 4.2329 7.5586 6.4525 6.5144L6.5495 7.7366C3.3152 8.757 0 8.1558 0 4.0423C0 1.8946 1.3948 0 3.6184 0C7.3904 0 6.9659 4.4774 6.9659 4.4774ZM3.6346 1.0798C2.2721 1.0798 1.6333 2.5077 1.6333 3.5084L5.4256 3.5084C5.4256 2.3969 4.993 1.0798 3.6305 1.0798" sodipodi:nodetypes="ccccccccccc"/>
  <path id="shape15" transform="translate(56.8188, 34.8383)" fill="#6a6c6c" stroke-opacity="0" stroke="#000000" stroke-width="0" stroke-linecap="square" stroke-linejoin="bevel" d="M1.7142 0L0 0L0 1.6138L1.7142 1.6138Z" sodipodi:nodetypes="ccccc"/>
  <path id="shape16" transform="translate(64.1809, 28.4469839167902)" fill="#6a6c6c" stroke-opacity="0" stroke="#000000" stroke-width="0" stroke-linecap="square" stroke-linejoin="bevel" d="M0.004 4.05772C0.004 0.498016 3.5133 -0.652984 6.5737 0.343716L6.4767 1.61332C4.4553 0.699716 1.7344 1.26922 1.7344 4.07352C1.7344 6.79082 4.3502 7.57002 6.4929 6.64052L6.5697 7.86272C4.0348 8.70922 0 8.06052 0 4.05772" sodipodi:nodetypes="ccccccc"/>
  <path id="shape17" transform="translate(72.6871, 25.484)" fill="#6a6c6c" stroke-opacity="0" stroke="#000000" stroke-width="0" stroke-linecap="square" stroke-linejoin="bevel" d="M4.0995 2.9942C3.585 2.9693 3.0745 3.0943 2.6326 3.3534C2.1907 3.6125 1.8373 3.9941 1.6172 4.4497L1.6172 0L0 0L0 10.9641L1.6172 10.9641L1.6172 6.8664C1.6172 5.6442 2.0983 4.2005 3.5699 4.2005C4.9445 4.2005 5.1547 5.2289 5.1547 6.3443L5.1547 10.9641L6.7719 10.9641L6.7719 6.016C6.7719 4.2282 6.0199 2.9784 4.0995 2.9784" sodipodi:nodetypes="cccccccccccccc"/>
  <path id="shape18" transform="translate(89.922, 28.4645524094856)" fill="#6a6c6c" stroke-opacity="0" stroke="#000000" stroke-width="0" stroke-linecap="square" stroke-linejoin="bevel" d="M5.2355 7.98755L5.2355 3.36385C5.2355 2.26815 5.0294 1.22005 3.6507 1.22005C2.1629 1.22005 1.698 2.54905 1.698 3.78305L1.698 7.98755L0.0809 7.98755L0.0809 1.95575C0.0859 1.35485 0.0589 0.754148 0 0.156048L1.504 0.156048L1.5525 1.50485C1.7927 1.03755 2.165 0.647548 2.6251 0.381148C3.0852 0.114748 3.6137 -0.0169524 4.148 0.00174759C6.1331 0.00174759 6.8365 1.23985 6.8365 3.03945L6.8365 7.98755L5.2194 7.98755Z" sodipodi:nodetypes="cccccccccccccccc"/>
  <path id="shape19" transform="translate(39.3171, 28.4645524094856)" fill="#6a6c6c" stroke-opacity="0" stroke="#000000" stroke-width="0" stroke-linecap="square" stroke-linejoin="bevel" d="M5.2356 7.98755L5.2356 3.36385C5.2356 2.26815 5.0294 1.22005 3.6508 1.22005C2.163 1.22005 1.6981 2.54905 1.6981 3.78305L1.6981 7.98755L0.0809 7.98755L0.0809 1.95575C0.086 1.35485 0.059 0.754148 0 0.156048L1.5161 0.156048L1.5646 1.50485C1.8049 1.03755 2.1772 0.647548 2.6373 0.381148C3.0973 0.114748 3.6259 -0.0169524 4.1602 0.00174759C6.1452 0.00174759 6.8487 1.23985 6.8487 3.03945L6.8487 7.98755L5.2315 7.98755Z" sodipodi:nodetypes="cccccccccccccccc"/>
  <path id="shape20" transform="translate(116.468, 34.8344)" fill="#6a6c6c" stroke-opacity="0" stroke="#000000" stroke-width="0" stroke-linecap="square" stroke-linejoin="bevel" d="M1.714 0L0 0L0 1.6137L1.714 1.6137Z" sodipodi:nodetypes="ccccc"/>
 </g>
</svg>
