<?xml version="1.0" standalone="no"?>
<!DOCTYPE svg PUBLIC "-//W3C//DTD SVG 20010904//EN"
 "http://www.w3.org/TR/2001/REC-SVG-20010904/DTD/svg10.dtd">
<svg version="1.0" xmlns="http://www.w3.org/2000/svg"
 width="512.000000pt" height="512.000000pt" viewBox="0 0 512.000000 512.000000"
 preserveAspectRatio="xMidYMid meet">

<g transform="translate(0.000000,512.000000) scale(0.100000,-0.100000)"
fill="#000000" stroke="none">
<path d="M2005 4740 c-224 -34 -440 -159 -580 -335 -239 -301 -262 -726 -57
-1045 102 -159 268 -298 429 -358 l73 -27 0 -71 0 -71 -112 -5 c-128 -5 -180
-23 -236 -79 -67 -67 -76 -97 -80 -270 -4 -154 -3 -157 19 -173 31 -21 45 -20
69 4 18 18 20 33 20 159 0 127 2 141 23 171 44 65 67 75 188 78 l109 4 0 -201
0 -201 25 -16 c23 -15 27 -15 50 0 l25 16 0 558 0 558 23 44 c33 66 78 93 148
88 65 -5 109 -32 133 -82 14 -30 16 -89 16 -483 0 -390 2 -451 16 -471 17 -24
67 -30 81 -9 4 6 10 78 13 159 4 128 8 150 26 175 73 98 195 98 268 0 20 -27
21 -43 24 -280 2 -242 3 -253 23 -269 27 -23 44 -23 69 2 18 18 20 33 20 159
0 127 2 141 23 171 32 48 69 72 119 77 58 7 118 -23 149 -74 23 -37 24 -46 27
-291 l3 -253 25 -11 c18 -8 31 -8 49 0 25 11 25 13 25 139 0 71 5 144 10 165
14 49 76 104 129 113 54 9 126 -25 159 -74 l23 -35 -3 -520 -3 -521 -29 -60
c-23 -46 -68 -98 -189 -223 -92 -93 -168 -162 -179 -162 -17 0 -18 12 -18 164
l0 165 31 18 c17 10 39 35 50 55 71 138 -67 285 -205 218 -111 -53 -122 -207
-21 -273 l35 -22 0 -162 0 -163 -160 0 -160 0 0 163 0 162 35 22 c101 66 90
220 -21 273 -105 51 -224 -23 -224 -140 0 -56 25 -105 66 -131 l34 -21 0 -164
0 -164 -266 0 -266 0 4 143 c5 202 12 214 226 430 106 107 183 176 210 189 54
26 84 68 90 128 8 91 -48 159 -139 168 -84 8 -145 -35 -170 -118 -10 -33 -9
-47 5 -83 9 -25 26 -53 37 -62 19 -18 17 -21 -134 -174 -203 -206 -225 -248
-235 -468 l-7 -132 -45 22 c-27 13 -99 75 -176 152 -100 99 -138 144 -160 190
l-29 60 -5 403 c-5 385 -6 404 -24 418 -25 18 -36 18 -64 -2 l-22 -15 0 -374
c0 -234 4 -394 11 -427 24 -114 63 -173 220 -330 122 -123 143 -149 127 -154
-35 -11 -89 -66 -115 -118 -31 -61 -36 -158 -11 -217 23 -53 82 -114 136 -141
47 -23 50 -23 502 -26 250 -2 465 0 478 3 35 9 49 48 28 79 l-16 25 -469 3
c-456 3 -470 4 -497 24 -53 39 -69 71 -69 134 0 63 16 95 69 134 27 21 36 21
726 21 690 0 699 0 726 -21 53 -39 69 -71 69 -134 0 -63 -16 -95 -69 -134 -24
-19 -44 -21 -177 -24 -146 -3 -150 -4 -166 -28 -20 -32 -5 -71 32 -80 49 -12
288 2 328 20 54 24 112 80 138 134 27 58 30 158 5 214 -20 47 -71 105 -108
124 l-29 15 143 147 c153 157 194 220 217 330 7 34 11 224 11 541 0 546 0 544
-70 624 -77 87 -215 113 -316 60 l-42 -21 -6 47 c-22 169 -228 268 -387 186
-28 -15 -29 -15 -34 12 -27 126 -111 211 -225 229 l-41 7 43 24 c114 65 231
184 310 315 152 250 167 576 39 845 -43 89 -65 106 -106 79 -30 -20 -32 -48
-6 -90 11 -17 35 -74 53 -126 31 -91 32 -102 33 -245 0 -130 -3 -160 -23 -225
-58 -183 -165 -331 -318 -437 -31 -22 -168 -93 -178 -93 -3 0 -6 79 -6 176 l0
175 60 56 c45 41 71 77 103 141 l42 85 0 121 c0 119 -1 122 -37 198 -85 179
-241 279 -433 279 -190 0 -349 -98 -430 -266 -94 -191 -55 -405 100 -554 l65
-63 0 -174 c0 -96 -3 -174 -8 -174 -4 0 -42 17 -84 38 -219 110 -370 305 -424
548 -26 120 -16 302 23 416 89 258 288 445 550 520 102 29 304 31 403 4 91
-25 214 -85 286 -139 37 -28 72 -47 88 -47 30 0 50 31 42 65 -14 55 -241 186
-390 224 -91 24 -264 34 -351 21z m288 -564 c226 -110 281 -397 112 -583 l-42
-47 -38 43 c-58 63 -106 85 -190 86 -59 0 -78 -5 -124 -30 -29 -16 -65 -44
-79 -63 l-25 -33 -43 42 c-54 53 -93 139 -101 222 -15 163 98 331 256 382 75
24 205 15 274 -19z m188 -2316 c5 0 14 -12 20 -26 12 -33 -11 -74 -43 -74 -29
0 -58 28 -58 56 0 25 37 57 58 49 8 -3 18 -5 23 -5z m224 -440 c36 -40 -7
-100 -58 -81 -31 12 -41 49 -21 78 18 28 55 30 79 3z m431 -5 c33 -50 -20
-104 -71 -71 -29 19 -32 51 -8 78 23 26 59 23 79 -7z"/>
<path d="M3590 4737 c-14 -7 -26 -22 -28 -34 -2 -12 19 -66 47 -121 235 -468
235 -1015 0 -1483 -27 -54 -49 -108 -49 -119 0 -11 11 -27 25 -36 23 -15 27
-15 51 1 33 22 121 203 168 347 65 199 81 305 81 548 0 185 -3 231 -23 330
-32 156 -84 309 -151 443 -62 123 -82 143 -121 124z"/>
<path d="M3052 4728 c-22 -22 -12 -60 28 -108 22 -26 64 -86 94 -134 267 -426
241 -990 -65 -1387 -82 -105 -81 -104 -70 -132 13 -33 45 -43 75 -24 31 21
123 145 179 242 266 463 220 1060 -115 1482 -47 59 -63 73 -86 73 -15 0 -33
-5 -40 -12z"/>
</g>
</svg>
