<?xml version="1.0" standalone="no"?>
<!DOCTYPE svg PUBLIC "-//W3C//DTD SVG 20010904//EN" "http://www.w3.org/TR/2001/REC-SVG-20010904/DTD/svg10.dtd">
<!-- Created using Krita: https://krita.org -->
<svg xmlns="http://www.w3.org/2000/svg" 
    xmlns:xlink="http://www.w3.org/1999/xlink"
    xmlns:krita="http://krita.org/namespaces/svg/krita"
    xmlns:sodipodi="http://sodipodi.sourceforge.net/DTD/sodipodi-0.dtd"
    width="512.16pt"
    height="512.16pt"
    viewBox="0 0 512.16 512.16">
<defs/>
<path id="shape0" transform="matrix(0.1 0 0 -0.1 123.262487171884 474.890345773504)" fill="#2163ee" stroke-opacity="0" stroke="#000000" stroke-width="0" stroke-linecap="square" stroke-linejoin="bevel" d="M776.35 4370.47C552.35 4336.47 336.35 4211.47 196.35 4035.47C-42.6497 3734.47 -65.6497 3309.47 139.35 2990.47C241.35 2831.47 407.35 2692.47 568.35 2632.47L641.35 2605.47L641.35 2534.47L641.35 2463.47L529.35 2458.47C401.35 2453.47 349.35 2435.47 293.35 2379.47C226.35 2312.47 217.35 2282.47 213.35 2109.47C209.35 1955.47 210.35 1952.47 232.35 1936.47C263.35 1915.47 277.35 1916.47 301.35 1940.47C319.35 1958.47 321.35 1973.47 321.35 2099.47C321.35 2226.47 323.35 2240.47 344.35 2270.47C388.35 2335.47 411.35 2345.47 532.35 2348.47L641.35 2352.47L641.35 2151.47L641.35 1950.47L666.35 1934.47C689.35 1919.47 693.35 1919.47 716.35 1934.47L741.35 1950.47L741.35 2508.47L741.35 3066.47L764.35 3110.47C797.35 3176.47 842.35 3203.47 912.35 3198.47C977.35 3193.47 1021.35 3166.47 1045.35 3116.47C1059.35 3086.47 1061.35 3027.47 1061.35 2633.47C1061.35 2243.47 1063.35 2182.47 1077.35 2162.47C1094.35 2138.47 1144.35 2132.47 1158.35 2153.47C1162.35 2159.47 1168.35 2231.47 1171.35 2312.47C1175.35 2440.47 1179.35 2462.47 1197.35 2487.47C1270.35 2585.47 1392.35 2585.47 1465.35 2487.47C1485.35 2460.47 1486.35 2444.47 1489.35 2207.47C1491.35 1965.47 1492.35 1954.47 1512.35 1938.47C1539.35 1915.47 1556.35 1915.47 1581.35 1940.47C1599.35 1958.47 1601.35 1973.47 1601.35 2099.47C1601.35 2226.47 1603.35 2240.47 1624.35 2270.47C1656.35 2318.47 1693.35 2342.47 1743.35 2347.47C1801.35 2354.47 1861.35 2324.47 1892.35 2273.47C1915.35 2236.47 1916.35 2227.47 1919.35 1982.47L1922.35 1729.47L1947.35 1718.47C1965.35 1710.47 1978.35 1710.47 1996.35 1718.47C2021.35 1729.47 2021.35 1731.47 2021.35 1857.47C2021.35 1928.47 2026.35 2001.47 2031.35 2022.47C2045.35 2071.47 2107.35 2126.47 2160.35 2135.47C2214.35 2144.47 2286.35 2110.47 2319.35 2061.47L2342.35 2026.47L2339.35 1506.47L2336.35 985.474L2307.35 925.474C2284.35 879.474 2239.35 827.474 2118.35 702.474C2026.35 609.474 1950.35 540.474 1939.35 540.474C1922.35 540.474 1921.35 552.474 1921.35 704.474L1921.35 869.474L1952.35 887.474C1969.35 897.474 1991.35 922.474 2002.35 942.474C2073.35 1080.47 1935.35 1227.47 1797.35 1160.47C1686.35 1107.47 1675.35 953.474 1776.35 887.474L1811.35 865.474L1811.35 703.474L1811.35 540.474L1651.35 540.474L1491.35 540.474L1491.35 703.474L1491.35 865.474L1526.35 887.474C1627.35 953.474 1616.35 1107.47 1505.35 1160.47C1400.35 1211.47 1281.35 1137.47 1281.35 1020.47C1281.35 964.474 1306.35 915.474 1347.35 889.474L1381.35 868.474L1381.35 704.474L1381.35 540.474L1115.35 540.474L849.35 540.474L853.35 683.474C858.35 885.474 865.35 897.474 1079.35 1113.47C1185.35 1220.47 1262.35 1289.47 1289.35 1302.47C1343.35 1328.47 1373.35 1370.47 1379.35 1430.47C1387.35 1521.47 1331.35 1589.47 1240.35 1598.47C1156.35 1606.47 1095.35 1563.47 1070.35 1480.47C1060.35 1447.47 1061.35 1433.47 1075.35 1397.47C1084.35 1372.47 1101.35 1344.47 1112.35 1335.47C1131.35 1317.47 1129.35 1314.47 978.35 1161.47C775.35 955.474 753.35 913.474 743.35 693.474L736.35 561.474L691.35 583.474C664.35 596.474 592.35 658.474 515.35 735.474C415.35 834.474 377.35 879.474 355.35 925.474L326.35 985.474L321.35 1388.47C316.35 1773.47 315.35 1792.47 297.35 1806.47C272.35 1824.47 261.35 1824.47 233.35 1804.47L211.35 1789.47L211.35 1415.47C211.35 1181.47 215.35 1021.47 222.35 988.474C246.35 874.474 285.35 815.474 442.35 658.474C564.35 535.474 585.35 509.474 569.35 504.474C534.35 493.474 480.35 438.474 454.35 386.474C423.35 325.474 418.35 228.474 443.35 169.474C466.35 116.474 525.35 55.4739 579.35 28.4739C626.35 5.47391 629.35 5.47391 1081.35 2.47391C1331.35 0.473912 1546.35 2.47391 1559.35 5.47391C1594.35 14.4739 1608.35 53.4739 1587.35 84.4739L1571.35 109.474L1102.35 112.474C646.35 115.474 632.35 116.474 605.35 136.474C552.35 175.474 536.35 207.474 536.35 270.474C536.35 333.474 552.35 365.474 605.35 404.474C632.35 425.474 641.35 425.474 1331.35 425.474C2021.35 425.474 2030.35 425.474 2057.35 404.474C2110.35 365.474 2126.35 333.474 2126.35 270.474C2126.35 207.474 2110.35 175.474 2057.35 136.474C2033.35 117.474 2013.35 115.474 1880.35 112.474C1734.35 109.474 1730.35 108.474 1714.35 84.4739C1694.35 52.4739 1709.35 13.4739 1746.35 4.47391C1795.35 -7.52609 2034.35 6.47391 2074.35 24.4739C2128.35 48.4739 2186.35 104.474 2212.35 158.474C2239.35 216.474 2242.35 316.474 2217.35 372.474C2197.35 419.474 2146.35 477.474 2109.35 496.474L2080.35 511.474L2223.35 658.474C2376.35 815.474 2417.35 878.474 2440.35 988.474C2447.35 1022.47 2451.35 1212.47 2451.35 1529.47C2451.35 2075.47 2451.35 2073.47 2381.35 2153.47C2304.35 2240.47 2166.35 2266.47 2065.35 2213.47L2023.35 2192.47L2017.35 2239.47C1995.35 2408.47 1789.35 2507.47 1630.35 2425.47C1602.35 2410.47 1601.35 2410.47 1596.35 2437.47C1569.35 2563.47 1485.35 2648.47 1371.35 2666.47L1330.35 2673.47L1373.35 2697.47C1487.35 2762.47 1604.35 2881.47 1683.35 3012.47C1835.35 3262.47 1850.35 3588.47 1722.35 3857.47C1679.35 3946.47 1657.35 3963.47 1616.35 3936.47C1586.35 3916.47 1584.35 3888.47 1610.35 3846.47C1621.35 3829.47 1645.35 3772.47 1663.35 3720.47C1694.35 3629.47 1695.35 3618.47 1696.35 3475.47C1696.35 3345.47 1693.35 3315.47 1673.35 3250.47C1615.35 3067.47 1508.35 2919.47 1355.35 2813.47C1324.35 2791.47 1187.35 2720.47 1177.35 2720.47C1174.35 2720.47 1171.35 2799.47 1171.35 2896.47L1171.35 3071.47L1231.35 3127.47C1276.35 3168.47 1302.35 3204.47 1334.35 3268.47L1376.35 3353.47L1376.35 3474.47C1376.35 3593.47 1375.35 3596.47 1339.35 3672.47C1254.35 3851.47 1098.35 3951.47 906.35 3951.47C716.35 3951.47 557.35 3853.47 476.35 3685.47C382.35 3494.47 421.35 3280.47 576.35 3131.47L641.35 3068.47L641.35 2894.47C641.35 2798.47 638.35 2720.47 633.35 2720.47C629.35 2720.47 591.35 2737.47 549.35 2758.47C330.35 2868.47 179.35 3063.47 125.35 3306.47C99.3503 3426.47 109.35 3608.47 148.35 3722.47C237.35 3980.47 436.35 4167.47 698.35 4242.47C800.35 4271.47 1002.35 4273.47 1101.35 4246.47C1192.35 4221.47 1315.35 4161.47 1387.35 4107.47C1424.35 4079.47 1459.35 4060.47 1475.35 4060.47C1505.35 4060.47 1525.35 4091.47 1517.35 4125.47C1503.35 4180.47 1276.35 4311.47 1127.35 4349.47C1036.35 4373.47 863.35 4383.47 776.35 4370.47ZM1064.35 3806.47C1290.35 3696.47 1345.35 3409.47 1176.35 3223.47L1134.35 3176.47L1096.35 3219.47C1038.35 3282.47 990.35 3304.47 906.35 3305.47C847.35 3305.47 828.35 3300.47 782.35 3275.47C753.35 3259.47 717.35 3231.47 703.35 3212.47L678.35 3179.47L635.35 3221.47C581.35 3274.47 542.35 3360.47 534.35 3443.47C519.35 3606.47 632.35 3774.47 790.35 3825.47C865.35 3849.47 995.35 3840.47 1064.35 3806.47ZM1252.35 1490.47C1257.35 1490.47 1266.35 1478.47 1272.35 1464.47C1284.35 1431.47 1261.35 1390.47 1229.35 1390.47C1200.35 1390.47 1171.35 1418.47 1171.35 1446.47C1171.35 1471.47 1208.35 1503.47 1229.35 1495.47C1237.35 1492.47 1247.35 1490.47 1252.35 1490.47ZM1476.35 1050.47C1512.35 1010.47 1469.35 950.474 1418.35 969.474C1387.35 981.474 1377.35 1018.47 1397.35 1047.47C1415.35 1075.47 1452.35 1077.47 1476.35 1050.47ZM1907.35 1045.47C1940.35 995.474 1887.35 941.474 1836.35 974.474C1807.35 993.474 1804.35 1025.47 1828.35 1052.47C1851.35 1078.47 1887.35 1075.47 1907.35 1045.47Z" sodipodi:nodetypes="ccccccccccccccccccccccccccccccccccccccccccccccccccccccccccccccccccccccccccccccccccccccccccccccccccccccccccccccccccccccccccccccccccccccccccccccccccccccccccccccccccccccccccccccccccccccccccccccc"/><path id="shape1" transform="matrix(0.1 0 0 -0.1 356.397512828115 218.555757067792)" fill="#2163ee" stroke-opacity="0" stroke="#000000" stroke-width="0" stroke-linecap="square" stroke-linejoin="bevel" d="M30 1804.13C16 1797.13 4 1782.13 2 1770.13C0 1758.13 21 1704.13 49 1649.13C284 1181.13 284 634.128 49 166.128C22 112.128 0 58.128 0 47.128C0 36.128 11 20.128 25 11.128C48 -3.87198 52 -3.87198 76 12.128C109 34.128 197 215.128 244 359.128C309 558.128 325 664.128 325 907.128C325 1092.13 322 1138.13 302 1237.13C270 1393.13 218 1546.13 151 1680.13C89 1803.13 69 1823.13 30 1804.13Z" sodipodi:nodetypes="cccccccccccc"/><path id="shape2" transform="matrix(0.1 0 0 -0.1 303.768703954497 218.49881893477)" fill="#2163ee" stroke="#000000" stroke-width="1" stroke-linecap="square" stroke-linejoin="bevel" d="M18.2881 1794.56C-3.71191 1772.56 6.28809 1734.56 46.2881 1686.56C68.2881 1660.56 110.288 1600.56 140.288 1552.56C407.288 1126.56 381.288 562.559 75.2881 165.559C-6.71191 60.5586 -5.71191 61.5586 5.28809 33.5586C18.2881 0.558643 50.2881 -9.44136 80.2881 9.55864C111.288 30.5586 203.288 154.559 259.288 251.559C525.288 714.559 479.288 1311.56 144.288 1733.56C97.2881 1792.56 81.2881 1806.56 58.2881 1806.56C43.2881 1806.56 25.2881 1801.56 18.2881 1794.56Z" sodipodi:nodetypes="cccccccccc"/>
</svg>
