<?xml version="1.0" standalone="no"?>
<!DOCTYPE svg PUBLIC "-//W3C//DTD SVG 20010904//EN" "http://www.w3.org/TR/2001/REC-SVG-20010904/DTD/svg10.dtd">
<!-- Created using Krita: https://krita.org -->
<svg xmlns="http://www.w3.org/2000/svg" 
    xmlns:xlink="http://www.w3.org/1999/xlink"
    xmlns:krita="http://krita.org/namespaces/svg/krita"
    xmlns:sodipodi="http://sodipodi.sourceforge.net/DTD/sodipodi-0.dtd"
    width="512.16pt"
    height="512.16pt"
    viewBox="0 0 512.16 512.16">
<defs/>
<path id="shape0" transform="matrix(0.1 0 0 -0.1 21.3150295736072 490.452499150341)" fill="#2163ee" stroke="#000000" stroke-width="1" stroke-linecap="square" stroke-linejoin="bevel" d="M3279.85 4684.52C3044.85 4658.52 2815.85 4567.52 2629.85 4427.52C2544.85 4363.52 2542.85 4362.52 2506.85 4373.52C2390.85 4408.52 2377.85 4399.52 1882.85 3911.52C1533.85 3567.52 1454.85 3485.52 1440.85 3449.52C1424.85 3406.52 1424.85 3364.52 1441.85 3308.52C1446.85 3291.52 1364.85 3206.52 945.85 2795.52C520.85 2377.52 440.85 2303.52 422.85 2309.52C328.85 2339.52 297.85 2345.52 251.85 2339.52C181.85 2331.52 125.85 2301.52 73.8497 2245.52C-116.15 2042.52 89.8497 1719.52 358.85 1798.52C458.85 1827.52 534.85 1908.52 557.85 2011.52C570.85 2067.52 566.85 2091.52 531.85 2200.52C526.85 2217.52 603.85 2297.52 1026.85 2713.52C1451.85 3130.52 1531.85 3205.52 1549.85 3200.52C1603.85 3184.52 1639.85 3182.52 1683.85 3194.52C1725.85 3206.52 1754.85 3230.52 1911.85 3383.52C2010.85 3480.52 2102.85 3569.52 2116.85 3581.52L2141.85 3603.52L2138.85 3466.52C2133.85 3259.52 2164.85 3093.52 2240.85 2929.52L2274.85 2856.52L2224.85 2808.52C2145.85 2731.52 2119.85 2655.52 2146.85 2577.52C2158.85 2544.52 2177.85 2564.52 1471.85 1872.52L1320.85 1724.52L1268.85 1744.52C1210.85 1766.52 1133.85 1770.52 1076.85 1753.52C1017.85 1735.52 946.85 1675.52 912.85 1614.52C886.85 1568.52 882.85 1549.52 882.85 1489.52C881.85 1328.52 997.85 1214.52 1161.85 1214.52C1274.85 1215.52 1362.85 1268.52 1414.85 1368.52C1448.85 1435.52 1450.85 1538.52 1419.85 1600.52L1397.85 1640.52L1817.85 2050.52C2095.85 2321.52 2242.85 2458.52 2254.85 2456.52C2367.85 2436.52 2416.85 2446.52 2478.85 2502.52L2517.85 2537.52L2554.85 2502.52C2574.85 2483.52 2608.85 2455.52 2629.85 2439.52L2666.85 2412.52L2632.85 2373.52C2613.85 2352.52 2590.85 2322.52 2582.85 2305.52C2564.85 2272.52 2561.85 2189.52 2575.85 2151.52C2584.85 2128.52 2545.85 2087.52 1963.85 1518.52C1621.85 1183.52 1251.85 820.525 1140.85 711.525L938.85 513.525L874.85 535.525C602.85 627.525 377.85 311.525 562.85 96.525C696.85 -60.475 954.85 -19.475 1038.85 172.525C1063.85 227.525 1060.85 340.525 1033.85 394.525L1015.85 428.525L1133.85 545.525C1892.85 1293.52 2662.85 2039.52 2675.85 2037.52C2684.85 2036.52 2712.85 2032.52 2739.85 2028.52C2814.85 2017.52 2865.85 2043.52 2967.85 2141.52L3054.85 2225.52L3157.85 2203.52C3239.85 2186.52 3295.85 2181.52 3420.85 2181.52L3580.85 2181.52L3380.85 1985.52C3200.85 1809.52 3179.85 1784.52 3166.85 1741.52C3156.85 1702.52 3155.85 1682.52 3165.85 1641.52L3177.85 1589.52L2894.85 1311.52C2738.85 1159.52 2514.85 940.525 2396.85 825.525L2181.85 617.525L2141.85 635.525C2085.85 661.525 1966.85 660.525 1909.85 634.525C1850.85 608.525 1781.85 534.525 1762.85 477.525C1701.85 299.525 1815.85 121.525 2001.85 106.525C2083.85 100.525 2150.85 122.525 2212.85 177.525C2301.85 255.525 2329.85 372.525 2286.85 485.525L2267.85 537.525L2554.85 817.525C2712.85 972.525 2936.85 1191.52 3051.85 1305.52C3229.85 1480.52 3264.85 1511.52 3281.85 1504.52C3314.85 1490.52 3404.85 1493.52 3441.85 1508.52C3495.85 1531.52 4340.85 2365.52 4360.85 2415.52C4379.85 2461.52 4380.85 2508.52 4365.85 2552.52C4355.85 2581.52 4358.85 2587.52 4409.85 2651.52C4546.85 2824.52 4627.85 2994.52 4672.85 3204.52C4694.85 3309.52 4697.85 3536.52 4677.85 3644.52C4586.85 4156.52 4190.85 4560.52 3678.85 4663.52C3564.85 4686.52 3381.85 4696.52 3279.85 4684.52ZM3602.85 4559.52C3718.85 4538.52 3782.85 4519.52 3888.85 4474.52C4157.85 4359.52 4388.85 4121.52 4496.85 3849.52C4591.85 3609.52 4600.85 3325.52 4520.85 3085.52C4465.85 2919.52 4296.85 2653.52 4257.85 2670.52C4224.85 2684.52 4147.85 2686.52 4110.85 2674.52C4083.85 2665.52 4023.85 2614.52 3904.85 2499.52L3735.85 2337.52L3653.85 2320.52C3529.85 2296.52 3403.85 2290.52 3287.85 2303.52C3231.85 2310.52 3177.85 2318.52 3169.85 2321.52C3158.85 2325.52 3173.85 2346.52 3225.85 2398.52C3263.85 2437.52 3302.85 2486.52 3311.85 2506.52C3363.85 2634.52 3267.85 2774.52 3126.85 2774.52C3057.85 2774.52 3017.85 2749.52 2886.85 2618.52L2759.85 2493.52L2700.85 2537.52C2585.85 2622.52 2568.85 2586.52 2862.85 2876.52C3031.85 3042.52 3125.85 3143.52 3137.85 3169.52C3198.85 3302.52 3109.85 3440.52 2961.85 3439.52C2882.85 3438.52 2840.85 3415.52 2751.85 3324.52C2713.85 3285.52 2610.85 3184.52 2523.85 3101.52C2400.85 2984.52 2362.85 2953.52 2355.85 2965.52C2350.85 2973.52 2335.85 3008.52 2322.85 3044.52C2260.85 3207.52 2236.85 3386.52 2254.85 3545.52C2277.85 3747.52 2267.85 3728.52 2454.85 3916.52C2570.85 4033.52 2625.85 4095.52 2634.85 4121.52C2646.85 4154.52 2646.85 4199.52 2634.85 4266.52C2627.85 4309.52 2884.85 4465.52 3051.85 4519.52C3217.85 4573.52 3432.85 4588.52 3602.85 4559.52ZM2501.85 4239.52C2518.85 4223.52 2526.85 4204.52 2526.85 4181.52C2526.85 4149.52 2496.85 4117.52 2097.85 3725.52C1691.85 3328.52 1665.85 3304.52 1631.85 3304.52C1571.85 3304.52 1530.85 3362.52 1552.85 3417.52C1555.85 3425.52 1748.85 3619.52 1982.85 3848.52C2379.85 4237.52 2409.85 4264.52 2442.85 4264.52C2466.85 4264.52 2485.85 4256.52 2501.85 4239.52ZM2999.85 3313.52C3029.85 3297.52 3036.85 3285.52 3036.85 3244.52C3036.85 3211.52 3017.85 3190.52 2719.85 2896.52C2544.85 2724.52 2387.85 2576.52 2369.85 2569.52C2315.85 2544.52 2256.85 2583.52 2256.85 2643.52C2256.85 2676.52 2276.85 2697.52 2572.85 2989.52C2746.85 3159.52 2898.85 3304.52 2910.85 3311.52C2937.85 3327.52 2971.85 3327.52 2999.85 3313.52ZM3181.85 2629.52C3197.85 2614.52 3206.85 2593.52 3206.85 2572.52C3207.85 2542.52 3187.85 2520.52 3004.85 2342.52C2826.85 2167.52 2799.85 2144.52 2770.85 2144.52C2752.85 2144.52 2730.85 2147.52 2721.85 2150.52C2699.85 2159.52 2673.85 2212.52 2680.85 2238.52C2683.85 2249.52 2775.85 2348.52 2884.85 2457.52C3071.85 2643.52 3084.85 2654.52 3120.85 2654.52C3146.85 2654.52 3164.85 2647.52 3181.85 2629.52ZM4234.85 2541.52C4249.85 2527.52 4256.85 2509.52 4256.85 2485.52C4256.85 2452.52 4235.85 2429.52 3899.85 2099.52C3420.85 1630.52 3392.85 1604.52 3362.85 1604.52C3322.85 1604.52 3276.85 1650.52 3276.85 1689.52C3276.85 1719.52 3310.85 1756.52 3697.85 2136.52C3928.85 2363.52 4129.85 2554.52 4144.85 2561.52C4176.85 2575.52 4203.85 2569.52 4234.85 2541.52ZM356.85 2202.52C417.85 2171.52 448.85 2116.52 443.85 2051.52C431.85 1912.52 266.85 1854.52 166.85 1954.52C105.85 2015.52 100.85 2101.52 153.85 2165.52C205.85 2226.52 281.85 2240.52 356.85 2202.52ZM1246.85 1622.52C1318.85 1572.52 1341.85 1506.52 1311.85 1428.52C1263.85 1303.52 1085.85 1293.52 1018.85 1412.52C957.85 1520.52 1034.85 1643.52 1162.85 1644.52C1199.85 1644.52 1222.85 1638.52 1246.85 1622.52ZM2096.85 522.525C2157.85 491.525 2186.85 445.525 2186.85 379.525C2186.85 289.525 2120.85 224.525 2028.85 224.525C1886.85 224.525 1810.85 382.525 1902.85 484.525C1958.85 546.525 2023.85 558.525 2096.85 522.525ZM855.85 414.525C971.85 355.525 968.85 190.525 850.85 133.525C741.85 81.525 616.85 157.525 616.85 276.525C616.85 397.525 744.85 471.525 855.85 414.525Z" sodipodi:nodetypes="ccccccccccccccccccccccccccccccccccccccccccccccccccccccccccccccccccccccccccccccccccccccccccccccccccccccccccccccccccccccccccccccccccccccccccccccccccccccccccccccccccccccc"/>
</svg>
