<?xml version="1.0" standalone="no"?>
<!DOCTYPE svg PUBLIC "-//W3C//DTD SVG 20010904//EN"
 "http://www.w3.org/TR/2001/REC-SVG-20010904/DTD/svg10.dtd">
<svg version="1.0" xmlns="http://www.w3.org/2000/svg"
 width="512.000000pt" height="512.000000pt" viewBox="0 0 512.000000 512.000000"
 preserveAspectRatio="xMidYMid meet">

<g transform="translate(0.000000,512.000000) scale(0.100000,-0.100000)"
fill="#000000" stroke="none">
<path d="M3493 4900 c-235 -26 -464 -117 -650 -257 -85 -64 -87 -65 -123 -54
-116 35 -129 26 -624 -462 -349 -344 -428 -426 -442 -462 -16 -43 -16 -85 1
-141 5 -17 -77 -102 -496 -513 -425 -418 -505 -492 -523 -486 -94 30 -125 36
-171 30 -70 -8 -126 -38 -178 -94 -190 -203 16 -526 285 -447 100 29 176 110
199 213 13 56 9 80 -26 189 -5 17 72 97 495 513 425 417 505 492 523 487 54
-16 90 -18 134 -6 42 12 71 36 228 189 99 97 191 186 205 198 l25 22 -3 -137
c-5 -207 26 -373 102 -537 l34 -73 -50 -48 c-79 -77 -105 -153 -78 -231 12
-33 31 -13 -675 -705 l-151 -148 -52 20 c-58 22 -135 26 -192 9 -59 -18 -130
-78 -164 -139 -26 -46 -30 -65 -30 -125 -1 -161 115 -275 279 -275 113 1 201
54 253 154 34 67 36 170 5 232 l-22 40 420 410 c278 271 425 408 437 406 113
-20 162 -10 224 46 l39 35 37 -35 c20 -19 54 -47 75 -63 l37 -27 -34 -39 c-19
-21 -42 -51 -50 -68 -18 -33 -21 -116 -7 -154 9 -23 -30 -64 -612 -633 -342
-335 -712 -698 -823 -807 l-202 -198 -64 22 c-272 92 -497 -224 -312 -439 134
-157 392 -116 476 76 25 55 22 168 -5 222 l-18 34 118 117 c759 748 1529 1494
1542 1492 9 -1 37 -5 64 -9 75 -11 126 15 228 113 l87 84 103 -22 c82 -17 138
-22 263 -22 l160 0 -200 -196 c-180 -176 -201 -201 -214 -244 -10 -39 -11 -59
-1 -100 l12 -52 -283 -278 c-156 -152 -380 -371 -498 -486 l-215 -208 -40 18
c-56 26 -175 25 -232 -1 -59 -26 -128 -100 -147 -157 -61 -178 53 -356 239
-371 82 -6 149 16 211 71 89 78 117 195 74 308 l-19 52 287 280 c158 155 382
374 497 488 178 175 213 206 230 199 33 -14 123 -11 160 4 54 23 899 857 919
907 19 46 20 93 5 137 -10 29 -7 35 44 99 137 173 218 343 263 553 22 105 25
332 5 440 -91 512 -487 916 -999 1019 -114 23 -297 33 -399 21z m323 -125
c116 -21 180 -40 286 -85 269 -115 500 -353 608 -625 95 -240 104 -524 24
-764 -55 -166 -224 -432 -263 -415 -33 14 -110 16 -147 4 -27 -9 -87 -60 -206
-175 l-169 -162 -82 -17 c-124 -24 -250 -30 -366 -17 -56 7 -110 15 -118 18
-11 4 4 25 56 77 38 39 77 88 86 108 52 128 -44 268 -185 268 -69 0 -109 -25
-240 -156 l-127 -125 -59 44 c-115 85 -132 49 162 339 169 166 263 267 275
293 61 133 -28 271 -176 270 -79 -1 -121 -24 -210 -115 -38 -39 -141 -140
-228 -223 -123 -117 -161 -148 -168 -136 -5 8 -20 43 -33 79 -62 163 -86 342
-68 501 23 202 13 183 200 371 116 117 171 179 180 205 12 33 12 78 0 145 -7
43 250 199 417 253 166 54 381 69 551 40z m-1101 -320 c17 -16 25 -35 25 -58
0 -32 -30 -64 -429 -456 -406 -397 -432 -421 -466 -421 -60 0 -101 58 -79 113
3 8 196 202 430 431 397 389 427 416 460 416 24 0 43 -8 59 -25z m498 -926
c30 -16 37 -28 37 -69 0 -33 -19 -54 -317 -348 -175 -172 -332 -320 -350 -327
-54 -25 -113 14 -113 74 0 33 20 54 316 346 174 170 326 315 338 322 27 16 61
16 89 2z m182 -684 c16 -15 25 -36 25 -57 1 -30 -19 -52 -202 -230 -178 -175
-205 -198 -234 -198 -18 0 -40 3 -49 6 -22 9 -48 62 -41 88 3 11 95 110 204
219 187 186 200 197 236 197 26 0 44 -7 61 -25z m1053 -88 c15 -14 22 -32 22
-56 0 -33 -21 -56 -357 -386 -479 -469 -507 -495 -537 -495 -40 0 -86 46 -86
85 0 30 34 67 421 447 231 227 432 418 447 425 32 14 59 8 90 -20z m-3878
-339 c61 -31 92 -86 87 -151 -12 -139 -177 -197 -277 -97 -61 61 -66 147 -13
211 52 61 128 75 203 37z m890 -580 c72 -50 95 -116 65 -194 -48 -125 -226
-135 -293 -16 -61 108 16 231 144 232 37 0 60 -6 84 -22z m850 -1100 c61 -31
90 -77 90 -143 0 -90 -66 -155 -158 -155 -142 0 -218 158 -126 260 56 62 121
74 194 38z m-1241 -108 c116 -59 113 -224 -5 -281 -109 -52 -234 24 -234 143
0 121 128 195 239 138z"/>
</g>
</svg>
