<?xml version="1.0" standalone="no"?>
<!DOCTYPE svg PUBLIC "-//W3C//DTD SVG 20010904//EN"
 "http://www.w3.org/TR/2001/REC-SVG-20010904/DTD/svg10.dtd">
<svg version="1.0" xmlns="http://www.w3.org/2000/svg"
 width="512.000000pt" height="512.000000pt" viewBox="0 0 512.000000 512.000000"
 preserveAspectRatio="xMidYMid meet">

<g transform="translate(0.000000,512.000000) scale(0.100000,-0.100000)"
fill="#000000" stroke="none">
<path d="M2325 4959 c-909 -86 -1712 -708 -2026 -1569 -223 -614 -194 -1268
83 -1860 195 -416 546 -799 956 -1045 547 -327 1244 -421 1857 -249 602 169
1113 558 1435 1094 216 358 340 808 340 1230 0 423 -124 872 -340 1230 -149
249 -392 522 -609 685 -495 372 -1089 541 -1696 484z m570 -134 c1001 -153
1775 -929 1932 -1937 24 -157 24 -499 0 -656 -144 -926 -813 -1665 -1713
-1893 -1216 -307 -2466 443 -2774 1663 -51 202 -64 320 -64 558 0 243 14 361
69 576 236 921 1036 1604 1995 1704 118 12 435 4 555 -15z"/>
<path d="M2290 4576 c-1017 -146 -1760 -997 -1760 -2016 0 -941 638 -1752
1555 -1976 329 -80 713 -72 1035 22 554 162 1002 536 1260 1051 281 564 281
1242 0 1806 -294 587 -827 983 -1485 1103 -123 22 -477 28 -605 10z m532 -122
c62 -8 116 -19 120 -23 5 -4 13 -191 19 -416 8 -318 14 -415 25 -432 7 -12 51
-63 96 -115 46 -51 109 -123 141 -159 l57 -66 -27 -59 c-24 -51 -28 -71 -28
-149 1 -81 4 -96 32 -150 38 -73 90 -124 163 -162 49 -25 65 -28 150 -28 85 0
101 3 153 29 70 36 130 99 165 174 23 48 27 71 27 142 0 76 -4 93 -33 152 -38
77 -92 130 -171 167 -47 22 -70 26 -141 26 -72 0 -94 -4 -144 -28 l-60 -28
-22 23 c-11 13 -73 82 -136 154 l-116 132 -6 218 c-3 121 -9 293 -12 382 l-5
164 33 -7 c42 -9 247 -89 313 -123 320 -161 605 -428 796 -747 106 -177 195
-419 236 -645 26 -137 25 -505 -1 -645 -10 -55 -20 -103 -23 -107 -2 -5 -219
-8 -481 -8 -391 0 -482 -3 -504 -14 -15 -8 -136 -99 -270 -203 -134 -104 -248
-193 -255 -197 -7 -4 -32 4 -55 16 -37 20 -58 23 -143 23 -89 0 -106 -3 -156
-28 -69 -34 -132 -100 -167 -175 -49 -107 -32 -250 41 -348 70 -92 168 -139
288 -139 65 0 85 5 142 33 73 36 132 96 169 170 19 40 23 63 23 147 0 90 -3
105 -28 152 -15 29 -27 55 -27 57 0 4 284 228 443 349 l49 37 443 0 c244 0
446 -4 449 -8 7 -12 -88 -243 -136 -332 -217 -397 -559 -705 -965 -869 -238
-96 -409 -131 -673 -138 -202 -5 -341 8 -506 50 l-89 22 -22 455 c-12 250 -22
464 -22 474 -1 12 -79 99 -186 206 l-186 186 26 55 c89 196 -16 425 -224 486
-166 48 -359 -50 -420 -212 -28 -74 -28 -176 0 -250 27 -73 104 -156 177 -192
50 -24 69 -28 147 -28 78 0 98 4 150 28 l59 28 170 -170 170 -170 19 -421 c10
-232 17 -424 14 -426 -8 -9 -200 80 -293 136 -275 165 -507 393 -668 657 -70
115 -89 155 -143 287 -55 137 -97 296 -119 452 -28 206 -12 519 37 707 l10 37
422 0 422 0 230 230 230 230 54 -27 c76 -38 193 -44 273 -13 76 28 159 104
195 178 24 49 28 69 28 147 0 76 -4 98 -26 146 -37 79 -90 133 -167 171 -60
30 -76 33 -152 33 -71 0 -95 -5 -142 -27 -72 -34 -142 -103 -176 -176 -23 -49
-27 -70 -27 -147 1 -78 4 -97 28 -144 l27 -54 -207 -212 -208 -213 -383 -1
-383 -1 6 23 c20 63 92 223 141 310 290 512 809 866 1399 952 128 18 391 18
527 -1z m-529 -438 c59 -22 107 -64 133 -120 41 -87 28 -179 -34 -248 -48 -53
-102 -78 -172 -78 -170 0 -278 171 -206 326 36 78 122 133 206 133 19 0 52 -6
73 -13z m1367 -767 c60 -27 88 -54 116 -114 72 -151 -38 -325 -206 -325 -164
0 -276 172 -209 320 27 60 54 88 114 116 62 29 125 30 185 3z m-2249 -797
c169 -87 168 -319 0 -404 -156 -79 -331 28 -331 202 0 70 26 127 78 171 79 66
166 77 253 31z m1419 -854 c42 -26 61 -45 82 -87 96 -184 -66 -385 -264 -327
-170 49 -220 266 -91 388 41 39 90 57 158 58 51 0 69 -5 115 -32z"/>
<path d="M2467 2949 c-109 -26 -218 -116 -268 -223 -105 -225 21 -487 266
-552 207 -56 424 75 481 291 75 281 -193 552 -479 484z m209 -137 c63 -32 102
-70 132 -126 22 -42 27 -64 27 -126 0 -65 -4 -82 -30 -128 -55 -100 -133 -147
-245 -147 -112 0 -190 47 -245 147 -26 46 -30 63 -30 128 0 59 6 85 24 120 40
76 95 123 181 151 41 14 142 3 186 -19z"/>
</g>
</svg>
