<?xml version="1.0" standalone="no"?>
<!DOCTYPE svg PUBLIC "-//W3C//DTD SVG 20010904//EN" "http://www.w3.org/TR/2001/REC-SVG-20010904/DTD/svg10.dtd">
<!-- Created using Krita: https://krita.org -->
<svg xmlns="http://www.w3.org/2000/svg" 
    xmlns:xlink="http://www.w3.org/1999/xlink"
    xmlns:krita="http://krita.org/namespaces/svg/krita"
    xmlns:sodipodi="http://sodipodi.sourceforge.net/DTD/sodipodi-0.dtd"
    width="512.16pt"
    height="512.16pt"
    viewBox="0 0 512.16 512.16">
<defs/>
<path id="shape0" transform="matrix(0.1 0 0 -0.1 15.0648701992367 496.856372433883)" fill="#2163ee" stroke="#000000" stroke-width="0" stroke-linecap="square" stroke-linejoin="bevel" d="M2174.35 4807.56C1265.35 4721.56 462.351 4099.56 148.351 3238.56C-74.6487 2624.56 -45.6487 1970.56 231.351 1378.56C426.351 962.564 777.351 579.564 1187.35 333.564C1734.35 6.56372 2431.35 -87.4363 3044.35 84.5637C3646.35 253.564 4157.35 642.564 4479.35 1178.56C4695.35 1536.56 4819.35 1986.56 4819.35 2408.56C4819.35 2831.56 4695.35 3280.56 4479.35 3638.56C4330.35 3887.56 4087.35 4160.56 3870.35 4323.56C3375.35 4695.56 2781.35 4864.56 2174.35 4807.56ZM2744.35 4673.56C3745.35 4520.56 4519.35 3744.56 4676.35 2736.56C4700.35 2579.56 4700.35 2237.56 4676.35 2080.56C4532.35 1154.56 3863.35 415.564 2963.35 187.564C1747.35 -119.436 497.351 630.564 189.351 1850.56C138.351 2052.56 125.351 2170.56 125.351 2408.56C125.351 2651.56 139.351 2769.56 194.351 2984.56C430.351 3905.56 1230.35 4588.56 2189.35 4688.56C2307.35 4700.56 2624.35 4692.56 2744.35 4673.56Z" sodipodi:nodetypes="ccccccccccccccccccc"/><path id="shape1" transform="matrix(0.1 0 0 -0.1 53 459.07347537476)" fill="#2163ee" stroke="#000000" stroke-width="0" stroke-linecap="square" stroke-linejoin="bevel" d="M1760 4046.73C743 3900.73 0 3049.73 0 2030.73C0 1089.73 638 278.735 1555 54.7348C1884 -25.2652 2268 -17.2652 2590 76.7348C3144 238.735 3592 612.735 3850 1127.73C4131 1691.73 4131 2369.73 3850 2933.73C3556 3520.73 3023 3916.73 2365 4036.73C2242 4058.73 1888 4064.73 1760 4046.73ZM2292 3924.73C2354 3916.73 2408 3905.73 2412 3901.73C2417 3897.73 2425 3710.73 2431 3485.73C2439 3167.73 2445 3070.73 2456 3053.73C2463 3041.73 2507 2990.73 2552 2938.73C2598 2887.73 2661 2815.73 2693 2779.73L2750 2713.73L2723 2654.73C2699 2603.73 2695 2583.73 2695 2505.73C2696 2424.73 2699 2409.73 2727 2355.73C2765 2282.73 2817 2231.73 2890 2193.73C2939 2168.73 2955 2165.73 3040 2165.73C3125 2165.73 3141 2168.73 3193 2194.73C3263 2230.73 3323 2293.73 3358 2368.73C3381 2416.73 3385 2439.73 3385 2510.73C3385 2586.73 3381 2603.73 3352 2662.73C3314 2739.73 3260 2792.73 3181 2829.73C3134 2851.73 3111 2855.73 3040 2855.73C2968 2855.73 2946 2851.73 2896 2827.73L2836 2799.73L2814 2822.73C2803 2835.73 2741 2904.73 2678 2976.73L2562 3108.73L2556 3326.73C2553 3447.73 2547 3619.73 2544 3708.73L2539 3872.73L2572 3865.73C2614 3856.73 2819 3776.73 2885 3742.73C3205 3581.73 3490 3314.73 3681 2995.73C3787 2818.73 3876 2576.73 3917 2350.73C3943 2213.73 3942 1845.73 3916 1705.73C3906 1650.73 3896 1602.73 3893 1598.73C3891 1593.73 3674 1590.73 3412 1590.73C3021 1590.73 2930 1587.73 2908 1576.73C2893 1568.73 2772 1477.73 2638 1373.73C2504 1269.73 2390 1180.73 2383 1176.73C2376 1172.73 2351 1180.73 2328 1192.73C2291 1212.73 2270 1215.73 2185 1215.73C2096 1215.73 2079 1212.73 2029 1187.73C1960 1153.73 1897 1087.73 1862 1012.73C1813 905.735 1830 762.735 1903 664.735C1973 572.735 2071 525.735 2191 525.735C2256 525.735 2276 530.735 2333 558.735C2406 594.735 2465 654.735 2502 728.735C2521 768.735 2525 791.735 2525 875.735C2525 965.735 2522 980.735 2497 1027.73C2482 1056.73 2470 1082.73 2470 1084.73C2470 1088.73 2754 1312.73 2913 1433.73L2962 1470.73L3405 1470.73C3649 1470.73 3851 1466.73 3854 1462.73C3861 1450.73 3766 1219.73 3718 1130.73C3501 733.735 3159 425.735 2753 261.735C2515 165.735 2344 130.735 2080 123.735C1878 118.735 1739 131.735 1574 173.735L1485 195.735L1463 650.735C1451 900.735 1441 1114.73 1441 1124.73C1440 1136.73 1362 1223.73 1255 1330.73L1069 1516.73L1095 1571.73C1184 1767.73 1079 1996.73 871 2057.73C705 2105.73 512 2007.73 451 1845.73C423 1771.73 423 1669.73 451 1595.73C478 1522.73 555 1439.73 628 1403.73C678 1379.73 697 1375.73 775 1375.73C853 1375.73 873 1379.73 925 1403.73L984 1431.73L1154 1261.73L1324 1091.73L1343 670.735C1353 438.735 1360 246.735 1357 244.735C1349 235.735 1157 324.735 1064 380.735C789 545.735 557 773.735 396 1037.73C326 1152.73 307 1192.73 253 1324.73C198 1461.73 156 1620.73 134 1776.73C106 1982.73 122 2295.73 171 2483.73L181 2520.73L603 2520.73L1025 2520.73L1255 2750.73L1485 2980.73L1539 2953.73C1615 2915.73 1732 2909.73 1812 2940.73C1888 2968.73 1971 3044.73 2007 3118.73C2031 3167.73 2035 3187.73 2035 3265.73C2035 3341.73 2031 3363.73 2009 3411.73C1972 3490.73 1919 3544.73 1842 3582.73C1782 3612.73 1766 3615.73 1690 3615.73C1619 3615.73 1595 3610.73 1548 3588.73C1476 3554.73 1406 3485.73 1372 3412.73C1349 3363.73 1345 3342.73 1345 3265.73C1346 3187.73 1349 3168.73 1373 3121.73L1400 3067.73L1193 2855.73L985 2642.73L602 2641.73L219 2640.73L225 2663.73C245 2726.73 317 2886.73 366 2973.73C656 3485.73 1175 3839.73 1765 3925.73C1893 3943.73 2156 3943.73 2292 3924.73ZM1763 3486.73C1822 3464.73 1870 3422.73 1896 3366.73C1937 3279.73 1924 3187.73 1862 3118.73C1814 3065.73 1760 3040.73 1690 3040.73C1520 3040.73 1412 3211.73 1484 3366.73C1520 3444.73 1606 3499.73 1690 3499.73C1709 3499.73 1742 3493.73 1763 3486.73ZM3130 2719.73C3190 2692.73 3218 2665.73 3246 2605.73C3318 2454.73 3208 2280.73 3040 2280.73C2876 2280.73 2764 2452.73 2831 2600.73C2858 2660.73 2885 2688.73 2945 2716.73C3007 2745.73 3070 2746.73 3130 2719.73ZM881 1922.73C1050 1835.73 1049 1603.73 881 1518.73C725 1439.73 550 1546.73 550 1720.73C550 1790.73 576 1847.73 628 1891.73C707 1957.73 794 1968.73 881 1922.73ZM2300 1068.73C2342 1042.73 2361 1023.73 2382 981.735C2478 797.735 2316 596.735 2118 654.735C1948 703.735 1898 920.735 2027 1042.73C2068 1081.73 2117 1099.73 2185 1100.73C2236 1100.73 2254 1095.73 2300 1068.73Z" sodipodi:nodetypes="cccccccccccccccccccccccccccccccccccccccccccccccccccccccccccccccccccccccccccccccccccccccccccccccccccccccccccccccccccccccccccccccccccccc"/><path id="shape2" transform="matrix(0.1 0 0 -0.1 216.176731287822 295.89428222515)" fill="#2163ee" stroke="#000000" stroke-width="0" stroke-linecap="square" stroke-linejoin="bevel" d="M305.233 787.943C196.233 761.943 87.2327 671.943 37.2327 564.943C-67.7673 339.943 58.2327 77.9428 303.233 12.9428C510.233 -43.0572 727.233 87.9428 784.233 303.943C859.233 584.943 591.233 855.943 305.233 787.943ZM514.233 650.943C577.233 618.943 616.233 580.943 646.233 524.943C668.233 482.943 673.233 460.943 673.233 398.943C673.233 333.943 669.233 316.943 643.233 270.943C588.233 170.943 510.233 123.943 398.233 123.943C286.233 123.943 208.233 170.943 153.233 270.943C127.233 316.943 123.233 333.943 123.233 398.943C123.233 457.943 129.233 483.943 147.233 518.943C187.233 594.943 242.233 641.943 328.233 669.943C369.233 683.943 470.233 672.943 514.233 650.943Z" sodipodi:nodetypes="ccccccccccccccc"/>
</svg>
